<svg xmlns="http://www.w3.org/2000/svg" width="512.002" height="491.504" viewBox="0 0 512.002 491.504">
  <g id="frontend-ico" transform="translate(0 -10.249)">
    <g id="Grupo_2" data-name="Grupo 2">
      <g id="Grupo_1" data-name="Grupo 1">
        <path id="Trazado_1" data-name="Trazado 1" d="M502,10.249H10a10,10,0,0,0-10,10V123.108a10,10,0,0,0,10,10H502a10,10,0,0,0,10-10V20.249A10,10,0,0,0,502,10.249ZM492,113.108H20V30.249H492Z" fill="#3bc14a"/>
      </g>
    </g>
    <g id="Grupo_4" data-name="Grupo 4">
      <g id="Grupo_3" data-name="Grupo 3">
        <path id="Trazado_2" data-name="Trazado 2" d="M469.41,90.394l-8.167-8.167A31.925,31.925,0,1,0,447.1,96.37l8.167,8.167A10,10,0,1,0,469.41,90.394ZM441.161,76.286a11.944,11.944,0,1,1,3.5-8.447A11.866,11.866,0,0,1,441.161,76.286Z" fill="#3bc14a"/>
      </g>
    </g>
    <g id="Grupo_6" data-name="Grupo 6">
      <g id="Grupo_5" data-name="Grupo 5">
        <path id="Trazado_3" data-name="Trazado 3" d="M358.341,87.831a10.053,10.053,0,0,0-.57-1.87,10.2,10.2,0,0,0-.92-1.73,10.04,10.04,0,0,0-1.24-1.52,9.571,9.571,0,0,0-1.52-1.24,9.869,9.869,0,0,0-1.73-.92,10.1,10.1,0,0,0-1.87-.57,9.9,9.9,0,0,0-3.91,0,10.225,10.225,0,0,0-5.12,2.73,10.629,10.629,0,0,0-1.24,1.52,10.239,10.239,0,0,0-.92,1.73,10.075,10.075,0,0,0-.57,1.87,10.153,10.153,0,0,0,0,3.91,10.066,10.066,0,0,0,.57,1.869,10.552,10.552,0,0,0,.92,1.73,10.684,10.684,0,0,0,1.24,1.52,10.335,10.335,0,0,0,3.25,2.16,10.583,10.583,0,0,0,1.87.57,9.96,9.96,0,0,0,5.78-.57,10.238,10.238,0,0,0,1.73-.92,9.516,9.516,0,0,0,1.52-1.24,10.089,10.089,0,0,0,2.93-7.069A9.943,9.943,0,0,0,358.341,87.831Z" fill="#3bc14a"/>
      </g>
    </g>
    <g id="Grupo_8" data-name="Grupo 8">
      <g id="Grupo_7" data-name="Grupo 7">
        <path id="Trazado_4" data-name="Trazado 4" d="M310.627,79.786H102.794a10,10,0,1,0,0,20H310.627a10,10,0,0,0,0-20Z" fill="#3bc14a"/>
      </g>
    </g>
    <g id="Grupo_10" data-name="Grupo 10">
      <g id="Grupo_9" data-name="Grupo 9">
        <path id="Trazado_5" data-name="Trazado 5" d="M314.821,147.364H11.181a10,10,0,0,0-10,10v197.2a10,10,0,0,0,10,10h303.64a10,10,0,0,0,10-10v-197.2A10,10,0,0,0,314.821,147.364Zm-193.015,197.2H36.925L94.09,278.376l41.4,47.94Zm25,0L165.452,319.7h48.489a10,10,0,0,0,0-20H180.453l7.016-9.354h62.789l40.665,54.215Zm55.662-74.215,16.4-21.859,16.4,21.859ZM304.821,329.76,226.863,225.82a10,10,0,0,0-16,0l-63.09,84.119-46.114-53.4a10,10,0,0,0-15.136,0L21.181,332.192V167.364h283.64Z" fill="#3bc14a"/>
      </g>
    </g>
    <g id="Grupo_12" data-name="Grupo 12">
      <g id="Grupo_11" data-name="Grupo 11">
        <path id="Trazado_6" data-name="Trazado 6" d="M137.648,178.846A35.353,35.353,0,1,0,173,214.2,35.393,35.393,0,0,0,137.648,178.846Zm0,50.707A15.353,15.353,0,1,1,153,214.2,15.37,15.37,0,0,1,137.648,229.553Z" fill="#3bc14a"/>
      </g>
    </g>
    <g id="Grupo_14" data-name="Grupo 14">
      <g id="Grupo_13" data-name="Grupo 13">
        <path id="Trazado_7" data-name="Trazado 7" d="M502,147.364H348.312a10,10,0,0,0-10,10v197.2a10,10,0,0,0,10,10H502a10,10,0,0,0,10-10v-197.2A10,10,0,0,0,502,147.364Zm-10,197.2H358.312v-177.2H492Z" fill="#3bc14a"/>
      </g>
    </g>
    <g id="Grupo_16" data-name="Grupo 16">
      <g id="Grupo_15" data-name="Grupo 15">
        <path id="Trazado_8" data-name="Trazado 8" d="M468.719,183.835H381.6a10,10,0,0,0,0,20h87.124a10,10,0,0,0,0-20Z" fill="#3bc14a"/>
      </g>
    </g>
    <g id="Grupo_18" data-name="Grupo 18">
      <g id="Grupo_17" data-name="Grupo 17">
        <path id="Trazado_9" data-name="Trazado 9" d="M468.719,223.969H381.6a10,10,0,0,0,0,20h87.124a10,10,0,0,0,0-20Z" fill="#3bc14a"/>
      </g>
    </g>
    <g id="Grupo_20" data-name="Grupo 20">
      <g id="Grupo_19" data-name="Grupo 19">
        <path id="Trazado_10" data-name="Trazado 10" d="M468.719,264.1H381.6a10,10,0,0,0,0,20h87.124a10,10,0,0,0,0-20Z" fill="#3bc14a"/>
      </g>
    </g>
    <g id="Grupo_22" data-name="Grupo 22">
      <g id="Grupo_21" data-name="Grupo 21">
        <path id="Trazado_11" data-name="Trazado 11" d="M391.4,312.281a10.053,10.053,0,0,0-.57-1.87,10.552,10.552,0,0,0-.92-1.73,9.986,9.986,0,0,0-12.14-3.68,10.634,10.634,0,0,0-1.73.92,9.718,9.718,0,0,0-2.76,2.76,10.635,10.635,0,0,0-.92,1.73,10.076,10.076,0,0,0-.57,1.87,9.65,9.65,0,0,0,0,3.909,10.086,10.086,0,0,0,.57,1.871,10.552,10.552,0,0,0,.92,1.73,9.718,9.718,0,0,0,2.76,2.76,10.635,10.635,0,0,0,1.73.92,10.1,10.1,0,0,0,1.87.57,9.916,9.916,0,0,0,9.02-2.731,9.861,9.861,0,0,0,2.17-3.25,10.076,10.076,0,0,0,.57-1.87,10.148,10.148,0,0,0,0-3.909Z" fill="#3bc14a"/>
      </g>
    </g>
    <g id="Grupo_24" data-name="Grupo 24">
      <g id="Grupo_23" data-name="Grupo 23">
        <path id="Trazado_12" data-name="Trazado 12" d="M468.719,304.236H419.505a10,10,0,0,0,0,20h49.214a10,10,0,0,0,0-20Z" fill="#3bc14a"/>
      </g>
    </g>
    <g id="Grupo_26" data-name="Grupo 26">
      <g id="Grupo_25" data-name="Grupo 25">
        <path id="Trazado_13" data-name="Trazado 13" d="M164.871,378.751H11.181a10,10,0,0,0-10,10v103a10,10,0,0,0,10,10h153.69a10,10,0,0,0,10-10v-103A10,10,0,0,0,164.871,378.751Zm-10,103H21.181v-83h133.69Z" fill="#3bc14a"/>
      </g>
    </g>
    <g id="Grupo_28" data-name="Grupo 28">
      <g id="Grupo_27" data-name="Grupo 27">
        <path id="Trazado_14" data-name="Trazado 14" d="M502,378.751H199.728a10,10,0,0,0-10,10v103a10,10,0,0,0,10,10H502a10,10,0,0,0,10-10v-103A10,10,0,0,0,502,378.751Zm-10,103H209.728v-83H492v83Z" fill="#3bc14a"/>
      </g>
    </g>
    <g id="Grupo_30" data-name="Grupo 30">
      <g id="Grupo_29" data-name="Grupo 29">
        <path id="Trazado_15" data-name="Trazado 15" d="M255.281,438.3a10.122,10.122,0,0,0-.57-1.87,9.861,9.861,0,0,0-.92-1.729,9.7,9.7,0,0,0-2.76-2.761,9.936,9.936,0,0,0-1.73-.92,10.126,10.126,0,0,0-1.87-.58,10.286,10.286,0,0,0-3.91,0,10.623,10.623,0,0,0-1.87.58,10.217,10.217,0,0,0-1.72.92,9.57,9.57,0,0,0-1.52,1.24,10.171,10.171,0,0,0-1.25,1.521,9.86,9.86,0,0,0-.92,1.729,10.123,10.123,0,0,0-.57,1.87,10.1,10.1,0,0,0,0,3.9,10.45,10.45,0,0,0,.57,1.879,10.021,10.021,0,0,0,9.24,6.171,9.916,9.916,0,0,0,1.95-.19,10.128,10.128,0,0,0,1.87-.58,9.243,9.243,0,0,0,1.73-.92,9.463,9.463,0,0,0,1.52-1.24,9.57,9.57,0,0,0,1.24-1.52,10.146,10.146,0,0,0,.92-1.72,10.436,10.436,0,0,0,.57-1.88,9.607,9.607,0,0,0,0-3.9Z" fill="#3bc14a"/>
      </g>
    </g>
    <g id="Grupo_32" data-name="Grupo 32">
      <g id="Grupo_31" data-name="Grupo 31">
        <path id="Trazado_16" data-name="Trazado 16" d="M451.319,430.252H283.389a10,10,0,0,0,0,20h167.93a10,10,0,0,0,0-20Z" fill="#3bc14a"/>
      </g>
    </g>
  </g>
</svg>
